<?xml version="1.0" encoding="UTF-8"?>
<svg width="257px" height="21px" viewBox="0 0 257 21" version="1.1" xmlns="http://www.w3.org/2000/svg" xmlns:xlink="http://www.w3.org/1999/xlink">
    <!-- Generator: Sketch 61.2 (89653) - https://sketch.com -->
    <title>编组 3备份 3</title>
    <desc>Created with Sketch.</desc>
    <g id="页面-1" stroke="none" stroke-width="1" fill="none" fill-rule="evenodd">
        <g id="导航样式规范" transform="translate(-40.000000, -430.000000)">
            <g id="编组-3备份-3" transform="translate(40.000000, 417.000000)">
                <path d="M137.3,18.9 L136.7,18.9 L136.7,17.7 L139.2,17.7 L139.2,16.9 L141.2,16.9 L141.2,17.8 L143.8,17.8 L143.8,19 L139.3,19 L139.3,22.6 L143.8,22.6 L143.8,23.7 L138.4,23.7 C137.8,23.7 137.3,23.5 137.3,22.7 L137.3,18.9 Z M144.6,20.7 L144.6,16.9 L151.3,16.9 L151.3,22.5 C151.3,23.5 150.8,23.7 150.2,23.7 L148.6,23.7 L148.6,22.5 L149.6,22.5 L149.6,21.9 L146.4,21.9 C146.3,22.5 146.2,23.1 146,23.6 L144.1,23.6 C144.5,22.7 144.7,21.7 144.6,20.7 L144.6,20.7 Z M149.6,21.1220459 L149.6,19.9 L146.4,19.9 L146.4,21.1220459 L149.6,21.1220459 Z M146.4,18 L146.4,19.2220459 L149.6,19.2220459 L149.6,18 L146.4,18 Z M136.7,26 L143.1,26 L143.1,27 L137.1,27 L137.1,28.4 L143.1,28.4 L143.1,29.4 L136.7,29.4 L136.7,30.8 L151.4,30.8 L151.4,29.4 L145.1,29.4 L145.1,28.4 L151.1,28.4 L151.1,27 L145.1,27 L145.1,26 L151.4,26 L151.4,24.6 L136.7,24.6 L136.7,26 L136.7,26 Z M182.9,21.8 L183.4,19 L185.6,19 L185.6,17.6 L179.8,17.6 L179.8,16.9 L177.8,16.9 L177.8,17.6 L172.1,17.6 L172.1,19 L174.8,19 L175.3,21.8 L173.5,21.8 C172.4,21.8 172,22.6 172,23.6 L172,24.2 C172,26.7 171.9,29.2 171,31 L173.2,31 C173.9,29 174,26.7 174,24.2 L174,23.2 L186,23.2 L186,21.8 L182.9,21.8 Z M176.9,19 L181.5,19 L181,21.8 L177.5,21.8 L176.9,19 Z M110,25.5 L110,24 L107.2,24 L107.2,22.9 L110,22.9 L110,21.5 L108.7,21.5 L109.2,19 L110.1,19 L110.1,17.6 L107.3,17.6 L107.3,16.9 L105.3,16.9 L105.3,17.6 L102.5,17.6 L102.5,19 L103.4,19 L103.9,21.5 L102.5,21.5 L102.5,22.9 L105.3,22.9 L105.3,24.1 L102.5,24.1 L102.5,25.6 L105.3,25.6 L105.3,31 L107.3,31 L107.3,25.6 L110,25.5 Z M105,19 L107.5,19 L107,21.5 L105.4,21.5 L105,19 Z M102.9,26.1 L104.7,26.1 C104.7,27.3 104.6,28.5 104.4,29.8 L104.1,31 L102.3,31 C102.5,30.5 102.6,30 102.8,29.5 C102.8,28.4 102.9,27.3 102.9,26.1 L102.9,26.1 Z M109.8,29.5 C109.9,30 110.1,30.5 110.3,31 L108.5,31 L108.2,29.8 C108,28.6 107.9,27.4 107.9,26.1 L109.7,26.1 C109.5,27.3 109.6,28.4 109.8,29.5 L109.8,29.5 Z M112.2,17.5 L117.6,17.2 L117.6,18.7 L113.1,19 L113.1,21.6 L117.6,21.6 L117.6,23 L117,23 L117,31 L115,31 L115,23 L113.1,23 L113.1,24.3 C113,26.6 112.8,28.8 112.3,31.1 L110.3,31.1 C110.8,28.9 111.1,26.6 111.2,24.3 L111.2,18.7 C111.1,18.1 111.6,17.5 112.1,17.5 L112.2,17.5 Z M161.7,29.5 L168.5,29.5 L168.5,31 L161.1,31 C160.2,31.1 159.4,30.4 159.3,29.5 L159.3,20.7 L158.6,20.7 L158.6,19.3 L159.3,19.3 L159.3,16.9 L161.3,16.9 L161.3,19.2 L162.7,19.1 L162.7,16.9 L164.5,16.9 L164.5,19 L166.9,18.9 C167.5,18.8 168,19.2 168.1,19.8 L168.1,26.4 C168.2,27.4 167.5,28.2 166.5,28.2 L165.2,28.2 L165.2,27 L165.6,27 C165.9,27 166.1,26.9 166.1,26.6 L166.1,20.3 L164.5,20.4 L164.5,28.2 L162.7,28.2 L162.7,20.5 L161.3,20.6 L161.3,29.1 C161.3,29.4 161.5,29.5 161.7,29.5 Z M156.8,16.9 L154.8,16.9 L154.8,19.4 L153.5,19.4 L153.5,20.8 L154.8,20.8 L154.8,29.2 L153.5,29.5 L153.5,31 L158,30 L158,28.5 L156.8,28.8 L156.8,20.8 L158,20.8 L158,19.3 L156.8,19.3 L156.8,16.9 Z M127,21.5 L134.7,21.5 L134.7,22.9 L125.5,22.9 C124.8,23.5 124.1,24.1 123.3,24.6 L126.8,24.6 L126.8,23.8 L128.8,23.8 L128.8,24.6 L132.9,24.6 C133.7,24.6 134.2,24.9 134.2,25.9 L134.2,29.3 C134.2,30.4 133.7,30.9 132.4,30.9 L131,30.9 L131,29.7 L131.8,29.7 C132.3,29.7 132.3,29.3 132.3,29.1 L132.3,26 L128.9,26 L128.9,30.9 L126.9,30.9 L126.9,26 L123.5,26 L123.5,30.9 L121.5,30.9 L121.5,25.7 C120.9,26 120.3,26.3 119.7,26.5 L119.7,24.5 C120.7,24 121.7,23.5 122.6,22.8 L119.7,22.8 L119.7,21.5 L124.4,21.5 C124.7,21.2 125,21 125.2,20.7 L127.8,20.7 C127.6,20.9 127.3,21.1 127,21.5 L127,21.5 Z M133.4,21.1 L133.4,19.6 L130.5,19 L133.4,18.4 L133.4,16.8 L127.2,18.2 L120.9,16.8 L120.9,18.3 L123.9,19 L120.9,19.7 L120.9,21.2 L127.2,19.8 L133.4,21.1 L133.4,21.1 Z M78.7,17.6 C77.6,17.6 76.4,18.1 75.6,18.8 L75.6,17.8 L71.6,17.8 L71.6,34 L75.7,34 L75.7,21 C76.3,20.7 76.9,20.5 77.6,20.4 C78.7,20.4 79.4,20.5 79.4,24 C79.4,27.5 78.4,27.9 77.4,27.9 C77.1,27.9 76.8,27.9 76.5,27.8 L76.5,30.4 C77,30.5 77.5,30.6 78,30.6 C80,30.6 83.5,30.1 83.5,24 C83.5,17.9 80.8,17.6 78.7,17.6 L78.7,17.6 Z M35.4,25 L36.5,30.5 L41.1,30.5 L42.6,17.9 L39.3,17.9 L38.2,27.3 L36.6,17.9 L34.1,17.9 L32.5,27.3 L31.4,17.9 L28.1,17.9 L29.6,30.5 L34.2,30.5 C34.2,30.4 35.4,25 35.4,25 L35.4,25 Z M63.9,30.7 C61.1,30.7 57.6,29.8 57.6,24.2 C57.6,18.7 61,17.7 63.9,17.7 C66.8,17.7 70.2,18.6 70.2,24.2 C70.2,29.8 66.6,30.7 63.9,30.7 Z M63.9,20.2 C62.6,20.2 61.8,20.8 61.8,24.1 C61.8,27.4 62.9,28 63.9,28 C65,28 66.1,27.6 66.1,24.1 C66.1,20.6 65.2,20.2 63.9,20.2 Z M26.6,25.4 L26.6,24.2 C26.7,18.8 23.5,17.7 21,17.7 C18.3,17.7 15.1,18.9 15.1,24.2 C15.1,30.1 18.7,30.7 21.5,30.7 C23,30.7 24.4,30.5 25.8,30.1 L25.8,27.2 C24.5,27.5 23.1,27.7 21.7,27.8 C20.3,27.8 19.2,27.5 19.1,25.5 L19.1,23.1 C19.2,21.1 19.5,20 21,20 C22.3,20 22.6,21 22.6,23.1 L20,23.1 L20,25.4 L26.6,25.4 L26.6,25.4 Z M96,25.4 L96,24.2 C96.1,18.8 92.9,17.7 90.4,17.7 C87.7,17.7 84.5,18.9 84.5,24.2 C84.5,30.1 88.1,30.7 90.9,30.7 C92.4,30.7 93.8,30.5 95.2,30.1 L95.2,27.2 C93.9,27.5 92.5,27.7 91.1,27.8 C89.7,27.8 88.6,27.5 88.5,25.5 L88.5,23.2 C88.6,21.2 88.8,20.1 90.3,20.1 C91.7,20 92,21 92,23.1 L89.4,23.1 L89.4,25.4 L96,25.4 L96,25.4 Z M9.5,14 L9.5,24.1 L4.8,14 L1.2,14 C0.6,14 0,14.5 0,15.2 L0,30.6 L4.1,30.6 L4.1,20.4 L9,30.7 L13.6,30.7 L13.6,14 L9.5,14 Z M48.3,21.5 L48.3,30.4 L44.2,30.4 L44.2,14 L48.3,14 L48.3,21.5 Z M52.4,17.6 C51.2,17.6 50.1,18 49.1,18.6 L49.1,21.2 C49.6,21 50.2,20.8 50.8,20.8 C51.7,20.7 52,21 52,21.8 L52,30.4 L56.1,30.4 L56.1,21.3 C56.1,18.5 54.5,17.6 52.4,17.6 Z" id="形状" fill="#008A43" fill-rule="nonzero"></path>
                <rect id="矩形" fill="#D9D9D9" x="194" y="16" width="1" height="16"></rect>
                <path d="M242.397333,29.9671111 L242.397333,28.6728889 L231.887111,28.6728889 L231.887111,19.0871111 L241.942222,19.0871111 L241.942222,17.8213333 L230.564444,17.8213333 L230.564444,29.9671111 L242.397333,29.9671111 Z M239.112,28.3742222 L239.112,24.0364444 L241.899556,24.0364444 L241.899556,22.7564444 L235.215111,22.7564444 L235.215111,21.3768889 C237.376889,21.3057778 239.353778,21.0497778 241.117333,20.6088889 L240.477333,19.4568889 C238.557333,19.9546667 236.381333,20.2248889 233.935111,20.2675556 L233.935111,23.0266667 C233.878222,24.8044444 233.423111,26.1982222 232.598222,27.2222222 L233.522667,28.2177778 C234.404444,27.1368889 234.944889,25.7431111 235.144,24.0364444 L237.775111,24.0364444 L237.775111,28.3742222 L239.112,28.3742222 Z M255.311111,22.9697778 L255.311111,17.736 L245.910222,17.736 L245.910222,22.9697778 L255.311111,22.9697778 Z M253.974222,19.8124444 L247.247111,19.8124444 L247.247111,18.888 L253.974222,18.888 L253.974222,19.8124444 Z M253.974222,21.832 L247.247111,21.832 L247.247111,20.8933333 L253.974222,20.8933333 L253.974222,21.832 Z M256.790222,30.152 L256.790222,28.9288889 L251.570667,28.9288889 L251.570667,27.7911111 L255.624,27.7911111 L255.624,26.6533333 L251.570667,26.6533333 L251.570667,25.5155556 L256.150222,25.5155556 L256.150222,24.3208889 L251.570667,24.3208889 L251.570667,23.3537778 L250.205333,23.3537778 L250.205333,24.3208889 L247.048,24.3208889 L247.360889,23.4533333 L246.137778,23.1831111 C245.597333,24.7333333 244.943111,25.9422222 244.175111,26.824 L245.056889,27.8764444 C245.597333,27.2222222 246.080889,26.4257778 246.521778,25.5155556 L250.205333,25.5155556 L250.205333,26.6533333 L246.379556,26.6533333 L246.379556,27.7911111 L250.205333,27.7911111 L250.205333,28.9288889 L244.687111,28.9288889 L244.687111,30.152 L256.790222,30.152 Z" id="匠星" fill="#404F56" fill-rule="nonzero"></path>
                <g id="编组备份" transform="translate(202.000000, 13.000000)" fill="#008749">
                    <path d="M11.7844387,0.642507295 L22.67171,10.4936369 L21.3861348,12.0257258 L11.6098877,3.3845073 L5.79988767,8.2005073 L5.79988767,17.9995073 L11.5283019,18 L11.5283019,20 L3.80035093,20 L3.79988767,9.8585073 L1.67046289,11.6236384 L0.384887671,10.0915495 L11.7844387,0.642507295 Z M15.4679245,8.7245283 L15.4679245,10.2867925 L9.99973585,10.2865283 L9.99973585,12.5955283 L17.3698113,12.5962264 L17.3698113,19.9320755 L15.7396226,19.9320755 L15.7387358,14.1575283 L9.99973585,14.1575283 L10,17.045283 L8.43773585,17.045283 L8.43773585,8.75849057 L8.53873585,8.7575283 L8.53962264,8.7245283 L15.4679245,8.7245283 Z" id="形状结合"></path>
                </g>
            </g>
        </g>
    </g>
</svg>